<?xml version="1.0" standalone="no"?>
<!DOCTYPE svg PUBLIC "-//W3C//DTD SVG 20010904//EN"
 "http://www.w3.org/TR/2001/REC-SVG-20010904/DTD/svg10.dtd">
<svg version="1.0" xmlns="http://www.w3.org/2000/svg"
 width="157.000000pt" height="67.000000pt" viewBox="0 0 157.000000 67.000000"
 preserveAspectRatio="xMidYMid meet">

<g transform="translate(0.000000,67.000000) scale(0.100000,-0.100000)"
fill="#000000" stroke="none">
<path d="M490 405 l0 -235 23 0 c49 0 56 23 59 195 l3 159 158 -177 c96 -108
165 -177 176 -177 10 0 26 11 35 25 13 20 16 58 16 235 l0 210 -24 0 c-44 0
-51 -22 -56 -182 l-5 -149 -148 166 -148 165 -44 0 -45 0 0 -235z"/>
<path d="M1209 624 c-8 -9 -69 -114 -136 -233 l-122 -216 40 -3 c57 -4 73 13
165 179 43 77 80 139 83 139 3 0 38 -55 76 -121 46 -79 78 -124 93 -130 24 -9
46 -4 38 10 -3 4 1 8 9 8 19 0 19 -16 1 -23 -16 -6 -19 -64 -3 -64 5 0 7 9 4
20 -3 11 -1 20 4 20 5 0 9 -5 9 -11 0 -5 5 -7 10 -4 6 4 23 -1 38 -11 l27 -18
-18 25 c-10 13 -20 32 -24 42 -3 9 -9 17 -14 17 -5 0 -9 7 -9 15 0 22 -30 66
-41 59 -5 -3 -7 1 -4 8 2 7 -35 78 -84 158 -90 149 -112 170 -142 134z m281
-394 c0 -5 -4 -10 -10 -10 -5 0 -10 5 -10 10 0 6 5 10 10 10 6 0 10 -4 10 -10z"/>
<path d="M52 608 c-7 -7 -12 -31 -12 -55 0 -36 5 -46 30 -65 l30 -22 -25 -23
c-29 -28 -32 -63 -7 -86 13 -12 22 -13 32 -6 11 8 12 12 3 16 -28 11 -13 49
28 73 22 14 53 35 67 47 27 22 27 22 4 23 -12 0 -33 -7 -46 -15 -21 -14 -25
-14 -49 6 -15 11 -27 25 -27 30 0 5 46 9 103 9 113 0 155 -14 190 -61 30 -42
34 -109 7 -156 -34 -61 -69 -77 -183 -81 -54 -3 -103 0 -108 5 -6 6 2 20 19
36 l29 28 25 -21 c25 -19 58 -27 58 -13 0 4 -10 17 -22 30 l-21 23 21 23 c26
27 28 59 6 81 -29 30 -50 15 -28 -19 13 -20 13 -24 -2 -39 -9 -9 -28 -23 -43
-31 -46 -23 -101 -91 -101 -124 0 -60 2 -61 124 -61 169 0 238 26 292 111 20
33 24 51 24 122 0 72 -3 88 -26 123 -29 45 -75 80 -125 94 -50 15 -252 13
-267 -2z"/>
<path d="M1412 210 c7 -10 14 -18 15 -16 6 6 -9 36 -18 36 -5 0 -4 -9 3 -20z"/>
<path d="M1480 180 c0 -5 5 -10 10 -10 6 0 10 5 10 10 0 6 -4 10 -10 10 -5 0
-10 -4 -10 -10z"/>
<path d="M1523 85 c0 -27 2 -38 4 -22 2 15 2 37 0 50 -2 12 -4 0 -4 -28z"/>
<path d="M503 93 c-15 -6 -17 -39 -4 -48 6 -3 8 4 6 15 -5 27 21 37 49 20 19
-12 20 -12 7 3 -13 17 -34 20 -58 10z"/>
<path d="M607 93 c-11 -10 -8 -53 3 -53 6 0 10 14 10 30 0 31 -2 35 -13 23z"/>
<path d="M645 91 c11 -4 23 -19 27 -32 6 -21 7 -21 5 6 -2 24 -7 30 -27 32
-22 2 -22 2 -5 -6z"/>
<path d="M707 94 c13 -3 23 -15 26 -30 4 -21 4 -21 3 3 -1 22 -6 28 -26 30
-21 1 -21 0 -3 -3z"/>
<path d="M790 62 c0 -20 3 -32 7 -28 4 4 8 17 8 29 0 17 6 22 25 22 19 0 25
-5 24 -22 0 -12 3 -20 8 -17 17 11 8 44 -14 48 -48 10 -58 4 -58 -32z"/>
<path d="M911 65 c1 -20 3 -24 6 -10 3 11 12 25 20 32 13 10 12 12 -6 10 -17
-1 -21 -7 -20 -32z"/>
<path d="M987 94 c-10 -10 -9 -42 2 -48 4 -3 6 6 3 19 -4 21 -1 25 21 25 14 0
28 -5 30 -10 3 -6 4 -5 3 2 -3 14 -48 23 -59 12z"/>
<path d="M1085 91 c-3 -5 -1 -12 5 -16 5 -3 10 -2 10 4 0 5 10 12 23 14 19 4
19 4 -5 6 -15 0 -29 -3 -33 -8z"/>
<path d="M1209 93 c18 -4 22 -9 18 -29 -2 -13 0 -24 5 -24 5 0 8 12 6 28 -2
21 -8 27 -28 28 -24 1 -24 1 -1 -3z"/>
<path d="M1280 70 c0 -39 14 -39 17 0 1 17 -2 30 -7 30 -6 0 -10 -13 -10 -30z"/>
<path d="M1362 70 c0 -19 2 -27 5 -17 2 9 2 25 0 35 -3 9 -5 1 -5 -18z"/>
<path d="M1448 93 c17 -3 21 -10 18 -29 -3 -13 0 -24 5 -24 6 0 9 12 7 28 -2
21 -8 27 -28 28 -22 1 -22 0 -2 -3z"/>
<path d="M1122 56 c7 -8 15 -12 17 -11 5 6 -10 25 -20 25 -5 0 -4 -6 3 -14z"/>
<path d="M1175 61 c-3 -5 -2 -12 3 -15 5 -3 9 1 9 9 0 17 -3 19 -12 6z"/>
<path d="M1415 59 c-4 -6 -5 -12 -2 -15 2 -3 7 2 10 11 7 17 1 20 -8 4z"/>
</g>
</svg>
