<svg width="485" height="484" fill="none" xmlns="http://www.w3.org/2000/svg"><path d="M22.514 151.414C12.156 174.555-3.176 218.858 2.986 273.96c7.906 70.697 47.05 126.434 85.127 157.755 126.349 103.93 357.645 36.788 388.274-61.112 5.557-17.762 3.995-34.891 2.072-55.97-6.114-67.041-29.887-88.056-51.547-159.239-19.712-64.78-8.711-70.982-27.144-99.782C359.784-6.86 244.364-10.01 164.946 19.942 134.441 31.446 60.418 66.735 22.514 151.414z" fill="#9DCCFF"/><path d="M295.977 222.22v-56.204l49.122-28.852v55.577l-49.122 29.479z" fill="#7F766F"/><path d="M295.977 223.092a.868.868 0 0 1-.872-.872v-56.204c0-.309.164-.595.43-.751l49.122-28.852a.873.873 0 0 1 1.314.752v55.576c0 .307-.161.59-.423.748l-49.123 29.479a.872.872 0 0 1-.448.124zm.872-56.577v54.164l47.378-28.432v-53.56l-47.378 27.828z" fill="#000"/><path d="m256.068 301.951 48.572-27.775-47.899-29.044-49.036 28.778 48.363 28.041zM345 250.8l48.573-27.775-47.899-29.043-49.036 28.778L345 250.8z" fill="#396DA6"/><path d="M345 251.672a.873.873 0 0 1-.437-.117L296.2 223.514a.87.87 0 0 1-.004-1.507l49.036-28.778a.872.872 0 0 1 .893.007l47.899 29.043a.875.875 0 0 1-.019 1.503l-48.573 27.775a.863.863 0 0 1-.432.115zm-46.632-28.916 46.635 27.038 46.852-26.79-46.188-28.007-47.299 27.759z" fill="#000"/><path d="m302.757 162.154 48.564 28.53-46.313 26.93-48.764-28.559-48.868 28.761-88.737-51.709 49.142-28.621 41.818 24.692 4.819-2.886-.12-48.897 43.228-25.176 87.533 52.169-42.302 24.766z" fill="#396DA6"/><path d="m214.418 159.292 41.425-24.291-41.374-23.931-.051 48.222z" fill="#fff"/><path d="M207.377 218.688a.872.872 0 0 1-.439-.119l-88.737-51.709a.872.872 0 0 1 0-1.506l49.142-28.621a.873.873 0 0 1 .882.002l41.372 24.429 3.948-2.365-.119-48.403c0-.311.165-.599.433-.755l43.228-25.176a.873.873 0 0 1 .886.004l87.533 52.17a.87.87 0 0 1-.006 1.501l-41.019 24.014 47.282 27.777a.872.872 0 0 1-.003 1.506l-46.313 26.931a.872.872 0 0 1-.879-.002l-48.322-28.299-48.426 28.501a.875.875 0 0 1-.443.12zm-87.005-52.581 87.003 50.699 48.427-28.502a.875.875 0 0 1 .883-.001l48.325 28.302 44.583-25.925-47.277-27.775a.87.87 0 0 1 .001-1.503l41.029-24.02-85.824-51.15-42.35 24.664.118 48.395a.872.872 0 0 1-.423.75l-4.818 2.886a.875.875 0 0 1-.892.003l-41.379-24.432-47.406 27.609z" fill="#000"/><path d="M255.843 416.28V302.996l49.524-28.824-.329-56.505 46.3-26.953.332 56.325 41.743-23.901v113.061l-137.57 80.081z" fill="#7F766F"/><path d="M255.843 417.152a.871.871 0 0 1-.872-.872V302.996a.87.87 0 0 1 .434-.753l49.088-28.57-.326-56.001a.872.872 0 0 1 .433-.759l46.301-26.951a.87.87 0 0 1 1.31.748l.323 54.831 40.447-23.158a.872.872 0 0 1 1.305.757v113.061a.87.87 0 0 1-.434.754l-137.571 80.079a.868.868 0 0 1-.438.118zm.872-113.654v111.266l135.826-79.066V224.642l-40.438 23.154a.868.868 0 0 1-.868-.002.87.87 0 0 1-.437-.75l-.323-54.818-44.563 25.941.327 56.001a.873.873 0 0 1-.434.758l-49.09 28.572z" fill="#000"/><path d="M255.764 416.108V302.503l-48.814-28.392.064-56.805-.218-.126-88.209-51.374v170.41l137.177 79.892z" fill="#fff"/><path d="M255.764 416.98a.87.87 0 0 1-.439-.119l-137.177-79.892a.872.872 0 0 1-.433-.753v-170.41a.87.87 0 0 1 1.31-.753l88.427 51.5a.872.872 0 0 1 .433.754l-.064 56.303 48.38 28.14a.871.871 0 0 1 .434.753v113.605a.874.874 0 0 1-.871.872zm-136.305-81.265 135.433 78.876V303.004l-48.381-28.139a.87.87 0 0 1-.433-.754l.063-56.304-86.682-50.484v168.392z" fill="#000"/><path d="M207.122 274.111v-56.203l49.122-28.853v55.577l-49.122 29.479z" fill="#7F766F"/><path d="M207.122 274.983a.871.871 0 0 1-.872-.872v-56.204c0-.309.164-.595.43-.751l49.122-28.852a.873.873 0 0 1 1.314.752v55.576c0 .307-.161.59-.424.748l-49.122 29.479a.875.875 0 0 1-.448.124zm.872-56.576v54.164l47.378-28.433v-53.559l-47.378 27.828z" fill="#000"/><path d="M305.227 274.172v-56.188l-48.761-28.502v55.728l48.761 28.962z" fill="#fff"/><path d="M305.227 275.044a.865.865 0 0 1-.445-.122l-48.761-28.963a.873.873 0 0 1-.427-.75V189.48a.873.873 0 0 1 1.312-.752l48.761 28.502a.873.873 0 0 1 .432.753v56.189a.874.874 0 0 1-.872.872zm-47.889-30.33 47.017 27.927v-54.157l-47.017-27.483v53.713zM254.958 360.352a.871.871 0 0 1-.438-.118l-136.339-79.306a.871.871 0 1 1 .877-1.508l136.339 79.307a.87.87 0 0 1-.439 1.625zM255.685 303.476a.871.871 0 0 1-.438-.118l-137.066-79.667a.872.872 0 0 1 .877-1.508l137.066 79.667a.873.873 0 0 1-.439 1.626z" fill="#000"/><path d="M206.938 387.336a.872.872 0 0 1-.872-.872V217.436a.872.872 0 0 1 1.744 0v169.028c0 .482-.39.872-.872.872zM160.437 360.598a.872.872 0 0 1-.871-.872V190.117a.872.872 0 1 1 1.743 0v169.609c0 .482-.39.872-.872.872zM257.046 360.352a.872.872 0 0 1-.44-1.625l136.248-79.388a.87.87 0 1 1 .877 1.506l-136.247 79.389a.871.871 0 0 1-.438.118zM255.95 303.846a.873.873 0 0 1-.44-1.626l137.344-80.051a.871.871 0 1 1 .878 1.507l-137.343 80.05a.867.867 0 0 1-.439.12z" fill="#000"/><path d="M305.17 387.336a.872.872 0 0 1-.872-.872V218.366a.871.871 0 0 1 1.744 0v168.098c0 .482-.39.872-.872.872zM351.671 360.598a.872.872 0 0 1-.872-.872V190.924a.871.871 0 1 1 1.744 0v168.802c0 .482-.39.872-.872.872z" fill="#000"/><path d="M304.536 218.158a.865.865 0 0 1-.437-.118l-136.57-79.479a.872.872 0 0 1 .877-1.507l136.57 79.479a.872.872 0 0 1-.44 1.625z" fill="#000"/><path d="M208.076 218.158a.872.872 0 0 1-.44-1.625l136.569-79.479a.87.87 0 1 1 .877 1.507L208.513 218.04a.87.87 0 0 1-.437.118zM161.575 190.839a.87.87 0 0 1-.439-1.625l136.569-79.479a.871.871 0 1 1 .877 1.507l-136.569 79.479a.871.871 0 0 1-.438.118z" fill="#000"/><path d="M351.037 191.421a.872.872 0 0 1-.438-.119L214.03 111.823a.872.872 0 0 1 .877-1.507l136.569 79.479a.872.872 0 0 1-.439 1.626z" fill="#000"/><path d="m314.372 236.329-47.942 27.878-47.902-27.913 48.445-28.215 47.399 28.25z" fill="#396DA6"/><path d="M266.429 265.079a.872.872 0 0 1-.439-.119l-47.901-27.913a.872.872 0 0 1 0-1.507l48.445-28.214a.875.875 0 0 1 .886.005l47.398 28.249a.874.874 0 0 1-.008 1.504l-47.943 27.877a.875.875 0 0 1-.438.118zm-46.169-28.785 46.17 26.904 46.223-26.879-45.685-27.228-46.708 27.203z" fill="#000"/><path d="M266.438 320.654v-56.68l48.131-27.744v56.03l-48.131 28.394z" fill="#7F766F"/><path d="M266.439 321.526a.875.875 0 0 1-.872-.872v-56.68c0-.311.166-.6.437-.755l48.13-27.744a.873.873 0 0 1 1.308.756v56.03a.873.873 0 0 1-.429.751l-48.131 28.393a.869.869 0 0 1-.443.121zm.872-57.048v54.649l46.386-27.364v-54.024l-46.386 26.739z" fill="#000"/><path d="M266.438 320.654v-56.68l-47.712-27.779v56.203l47.712 28.256z" fill="#fff"/><path d="M266.439 321.526a.87.87 0 0 1-.444-.122l-47.713-28.255a.874.874 0 0 1-.428-.751v-56.203a.872.872 0 0 1 1.31-.753l47.713 27.779a.872.872 0 0 1 .433.753v56.68a.871.871 0 0 1-.871.872zm-46.841-29.625 45.969 27.223v-54.649l-45.969-26.764v54.19z" fill="#000"/><path d="M49.91 426.847a.86.86 0 0 1-.44-.119L1.688 398.884a.872.872 0 0 1 0-1.507l48.445-28.214a.874.874 0 0 1 .885.005l47.281 28.181a.87.87 0 0 1-.008 1.503L50.348 426.73a.879.879 0 0 1-.438.117zM3.858 398.131l46.052 26.835 46.224-26.878-45.568-27.16-46.708 27.203z" fill="#396DA6"/><path d="M49.919 483.294a.872.872 0 0 1-.872-.872v-56.679c0-.312.166-.6.436-.755l47.933-27.646a.873.873 0 0 1 1.308.755v56.03a.872.872 0 0 1-.429.751l-47.933 28.295a.872.872 0 0 1-.443.121zm.872-57.047v54.648L96.98 453.63v-54.024l-46.19 26.641z" fill="#396DA6"/><path d="M49.919 483.294a.879.879 0 0 1-.444-.121L1.762 454.917a.872.872 0 0 1-.427-.75v-55.858a.872.872 0 0 1 1.306-.756l47.713 27.434c.27.156.437.444.437.756v56.679a.873.873 0 0 1-.872.872zM3.078 453.67l45.968 27.222v-54.645L3.078 399.816v53.854zM230.944 419.194a.869.869 0 0 1-.438-.119l-47.784-27.844a.872.872 0 0 1 0-1.507l48.444-28.214a.873.873 0 0 1 .886.004l47.281 28.181a.873.873 0 0 1-.008 1.504l-47.942 27.877a.882.882 0 0 1-.439.118zm-46.051-28.717 46.052 26.836 46.223-26.878-45.568-27.16-46.707 27.202z" fill="#396DA6"/><path d="M230.954 475.641a.87.87 0 0 1-.872-.872v-56.68c0-.311.166-.599.436-.755l47.933-27.646a.873.873 0 0 1 1.308.756v56.03a.874.874 0 0 1-.428.751l-47.933 28.294a.866.866 0 0 1-.444.122zm.872-57.048v54.649l46.189-27.266v-54.023l-46.189 26.64z" fill="#396DA6"/><path d="M230.954 475.641a.868.868 0 0 1-.444-.122l-47.713-28.255a.874.874 0 0 1-.428-.751v-55.858a.87.87 0 0 1 .436-.754.869.869 0 0 1 .871-.002l47.713 27.435a.87.87 0 0 1 .437.755v56.68a.871.871 0 0 1-.872.872zm-46.841-29.624 45.968 27.223v-54.646l-45.968-26.431v53.854zM325.376 57.802a.87.87 0 0 1-.439-.118l-47.783-27.845a.872.872 0 0 1 0-1.506L325.599.118a.871.871 0 0 1 .885.005l47.281 28.181a.87.87 0 0 1-.009 1.503l-47.942 27.877a.873.873 0 0 1-.438.118zm-46.051-28.716 46.052 26.835 46.222-26.878-45.567-27.16-46.707 27.203z" fill="#396DA6"/><path d="M325.385 114.249a.872.872 0 0 1-.872-.872V56.698c0-.312.167-.6.436-.755l47.933-27.646a.872.872 0 0 1 1.308.755v56.03a.873.873 0 0 1-.428.752l-47.933 28.294a.873.873 0 0 1-.444.121zm.872-57.047v54.649l46.189-27.266V30.562l-46.189 26.64z" fill="#396DA6"/><path d="M325.385 114.249a.87.87 0 0 1-.444-.121l-47.713-28.255a.873.873 0 0 1-.428-.75v-55.86a.871.871 0 0 1 1.307-.755l47.713 27.434c.27.156.437.444.437.756v56.68a.871.871 0 0 1-.872.871zm-46.841-29.624 45.969 27.223V57.203L278.544 30.77v53.854z" fill="#396DA6"/><path d="M117.355 129.896c-4.769.538.397-11.91.397-11.91l18.939-.969 14.335-3.955a2.8 2.8 0 0 1 3.43 1.914 2.8 2.8 0 0 1-1.934 3.487l-6.402 1.784a1.247 1.247 0 0 0-.594 2.032 11.706 11.706 0 0 0 3.353 2.609c2.305 1.195 6.347 3.159 10.579 4.603 1.986.678 2.353 3.189.373 3.878l-13.617-.583c-3.451-.148-7.762-2.699-10.069-5.273.001.001-10.586 1.456-18.79 2.383z" fill="#fff"/><path d="m159.831 134.242-.037-.001-13.617-.583c-3.676-.157-7.974-2.744-10.362-5.219-2.105.287-11.193 1.514-18.362 2.323l-.098-.866.098.866c-1.257.143-1.961-.411-2.328-.9-1.99-2.646 1.168-10.635 1.822-12.21a.869.869 0 0 1 .761-.536l18.844-.964 14.243-3.929a3.69 3.69 0 0 1 4.499 2.508 3.65 3.65 0 0 1-.313 2.819 3.643 3.643 0 0 1-2.223 1.753l-6.402 1.785a.365.365 0 0 0-.258.255.367.367 0 0 0 .081.357 10.81 10.81 0 0 0 3.104 2.416c2.072 1.074 6.187 3.094 10.459 4.551 1.358.464 2.273 1.659 2.277 2.974.003 1.167-.725 2.144-1.9 2.553a.916.916 0 0 1-.288.048zm-23.685-7.6c.245 0 .483.104.649.29 2.098 2.341 6.209 4.845 9.457 4.984l13.433.575c.387-.176.59-.466.589-.845-.001-.476-.341-1.071-1.096-1.328-4.16-1.42-8.114-3.315-10.699-4.654a12.537 12.537 0 0 1-3.603-2.804 2.105 2.105 0 0 1-.452-2.008 2.106 2.106 0 0 1 1.463-1.444l6.402-1.784c.5-.14.914-.467 1.166-.921.253-.455.312-.981.165-1.481a1.936 1.936 0 0 0-2.362-1.318l-14.335 3.954a.848.848 0 0 1-.187.03l-18.384.941c-1.404 3.539-2.814 8.682-1.833 9.984.067.09.206.276.739.216 8.1-.914 18.664-2.365 18.77-2.38a.912.912 0 0 1 .118-.007z" fill="#000"/><path d="M70.702 43.061c-10.736 2.462-18.33 7.767-18.33 7.767S35.948 61.3 36.338 81.283c.303 15.505 11.835 33.964 11.744 35.286-1.013 14.798-2.147 14.293-.617 19.566 3.716 12.8 56.338 7.52 57.273 1.654.849-5.322-1.596-14.221-.368-26.189 1.085-10.578 4.924-23.596 4.924-23.596 17.108 9.787 34.876 8.532 51.042-2.932 19.06-13.516 33.526-43.58 33.526-43.58l-10.522-6.09S160.647 61.53 141.59 63.572c-11.352 1.217-21.18-5.423-26.912-10.521-5.783-5.143-12.799-8.734-20.405-10.165-6.69-1.26-14.988-1.794-23.571.174z" fill="#396DA6"/><path d="M73.358 144.896c-12.757 0-24.896-2.206-26.728-8.519-1.03-3.548-.901-4.685-.421-8.915.27-2.379.64-5.631 1-10.875-.108-.401-.808-1.807-1.547-3.294-3.233-6.502-9.96-20.03-10.194-31.993-.395-20.238 16.267-31.1 16.435-31.207.286-.2 7.827-5.41 18.605-7.882 7.445-1.707 15.495-1.768 23.928-.181 7.603 1.43 14.803 5.017 20.823 10.37 6.006 5.341 15.433 11.465 26.24 10.306 18.502-1.983 40.961-27.617 41.185-27.876a.872.872 0 0 1 1.096-.183l10.521 6.092a.87.87 0 0 1 .349 1.132c-.145.303-14.783 30.422-33.807 43.913-16.393 11.623-34.009 12.832-51.01 3.52-.922 3.3-3.706 13.733-4.593 22.385-.689 6.712-.204 12.504.186 17.158.313 3.728.559 6.674.176 9.079-.661 4.146-16.51 6.217-24.798 6.734-2.457.152-4.965.236-7.446.236zM70.702 43.061l.195.85c-10.432 2.392-17.952 7.58-18.027 7.632-.19.122-16.035 10.483-15.66 29.722.227 11.572 6.837 24.864 10.013 31.252 1.479 2.973 1.765 3.601 1.73 4.111-.364 5.328-.739 8.624-1.012 11.03-.472 4.155-.57 5.02.363 8.233 1.782 6.138 17.551 7.953 32.39 7.028 13.983-.871 22.927-3.655 23.184-5.268.35-2.196.099-5.191-.192-8.659-.395-4.726-.888-10.608-.183-17.481 1.08-10.536 4.917-23.623 4.955-23.754a.872.872 0 0 1 1.269-.51c16.669 9.536 33.994 8.538 50.105-2.886 17.028-12.075 30.542-37.875 32.886-42.523l-9.197-5.324c-3.46 3.872-23.964 26.01-41.838 27.926-11.439 1.227-21.315-5.161-27.584-10.737-5.784-5.144-12.695-8.588-19.987-9.96-8.195-1.542-16.007-1.485-23.216.168l-.194-.85z" fill="#000"/><path d="M60.237 52.278S48.543 57.242 42.369 77.45c-3.408 11.153-2.783 27.056 14.022 48.198 3.361 4.229 8.081 8.435 13.411 9.042l51.075-2.405-.227-16.497s-39.61-2.286-45.562-4.545c-5.273-2-12.91-28.049-13.704-40.83l-1.147-18.135z" fill="#396DA6"/><path d="M69.803 135.562a.817.817 0 0 1-.099-.005c-5.953-.679-10.897-5.468-13.996-9.366a178.536 178.536 0 0 1-5.201-6.875.872.872 0 0 1 1.416-1.018 175.716 175.716 0 0 0 5.15 6.808c2.881 3.624 7.43 8.069 12.76 8.71l50.161-2.363-.204-14.843c-5.835-.347-39.409-2.426-45.011-4.552-4.936-1.873-10.51-19.735-12.891-31.82a.872.872 0 1 1 1.71-.337c2.904 14.736 8.528 29.286 11.8 30.527 5.76 2.185 44.908 4.467 45.302 4.489a.872.872 0 0 1 .822.859l.228 16.496a.872.872 0 0 1-.831.883l-51.075 2.406-.04.001z" fill="#000"/><path d="m64.88 292.08-3.723 18.03 9.746 2.785 5.39-17.555-11.413-3.26z" fill="#fff"/><path d="M70.903 313.766a.908.908 0 0 1-.24-.033l-9.746-2.785a.87.87 0 0 1-.614-1.014l3.722-18.03a.87.87 0 0 1 1.093-.662l11.413 3.26a.873.873 0 0 1 .594 1.094l-5.39 17.554a.87.87 0 0 1-.832.616zm-8.728-4.272 8.145 2.327 4.878-15.886-9.654-2.758-3.37 16.317z" fill="#000"/><path d="M57.933 325.306c.11 1.735 2.213 3.126 3.913 3.385 5.91.902 19.804.521 23.577.784 4.897.342 14.095-.026 14.45-3.178.435-3.847-3.67-9.454-13.497-12.526-5.082-1.589-10.457-9.462-12.835-9.603-2.379-.14-6.589 6.078-6.589 6.078l-6.772-2.325s-2.805 8.585-2.247 17.385z" fill="#396DA6"/><path d="M88.584 330.442c-1.762 0-3.05-.085-3.222-.097-1.276-.089-3.806-.103-6.735-.12-5.783-.032-12.982-.072-16.912-.672-2.13-.325-4.514-2.021-4.651-4.193-.563-8.863 2.17-17.353 2.288-17.71a.872.872 0 0 1 1.112-.554l6.149 2.111c1.255-1.763 4.576-6.05 6.98-5.909 1.383.081 3 1.644 5.237 3.806 2.312 2.235 5.19 5.016 7.807 5.835 10.368 3.241 14.579 9.248 14.104 13.456-.398 3.517-7.758 4.047-12.157 4.047zM60.756 309.04c-.666 2.357-2.393 9.261-1.952 16.21.076 1.191 1.768 2.364 3.174 2.579 3.805.58 11.234.622 16.66.653 2.958.016 5.514.03 6.846.123 6.22.434 13.302-.448 13.524-2.407.41-3.631-3.886-8.78-12.892-11.596-3.01-.941-6.054-3.882-8.498-6.245-1.51-1.459-3.39-3.275-4.128-3.319-1.148-.058-3.924 2.903-5.815 5.696a.872.872 0 0 1-1.005.336l-5.913-2.03z" fill="#000"/><path d="M91.055 325.744c-1.304 0-2.728-.075-4.236-.154-2.219-.117-4.513-.237-6.762-.134-5.168.238-9.589.032-12.388-.182-5.363-.411-5.561-.726-5.753-1.03a.872.872 0 0 1 1.107-1.259c.97.226 8.143 1.135 16.955.73 2.334-.108 4.672.015 6.934.135 3.364.177 6.541.344 8.318-.42a.872.872 0 1 1 .688 1.602c-1.281.549-2.942.712-4.863.712zM78.445 319.56a.872.872 0 0 1-.626-1.478l3.567-3.684a.872.872 0 0 1 1.252 1.213l-3.567 3.684a.873.873 0 0 1-.626.265z" fill="#000"/><path d="m12.02 291.222-.496 12.576 8.7 2.12 1.55-14.607-9.754-.089z" fill="#fff"/><path d="M20.224 306.79a.849.849 0 0 1-.207-.025l-8.7-2.12a.871.871 0 0 1-.665-.881l.496-12.576a.888.888 0 0 1 .88-.838l9.754.089a.87.87 0 0 1 .859.964l-1.55 14.607a.875.875 0 0 1-.867.78zm-7.8-3.67 7.038 1.715 1.344-12.661-7.948-.072-.435 11.018z" fill="#000"/><path d="M21.551 328.784c-3.486.497-9.177.707-15.915-.007-3.022-.32-4.2-4.558-3.669-6.739 1.478-6.078 4.047-15.876 8.417-21.218l1.605 3.262 1.515-3.181a1.33 1.33 0 0 1 .994-.68l3.268.032a1.33 1.33 0 0 1 1.467 1.056l.522 2.514 2.79-3.245 2.176 23.971c.267 2.052-1.143 3.946-3.17 4.235z" fill="#396DA6"/><path d="M14.11 330.113c-2.406 0-5.281-.121-8.566-.468-1.27-.135-2.381-.83-3.212-2.01-1.28-1.819-1.579-4.296-1.212-5.804 1.782-7.329 4.369-16.404 8.59-21.563a.872.872 0 0 1 1.457.167l.81 1.646.74-1.554c.361-.661.977-1.082 1.67-1.17.04-.005.082-.006.12-.007l3.216.031a2.213 2.213 0 0 1 2.364 1.751l.162.78 1.634-1.902a.872.872 0 0 1 1.53.489l2.177 23.971c.325 2.487-1.43 4.825-3.915 5.179-1.255.177-3.85.464-7.565.464zm7.441-1.329h.006-.006zm-11.324-26.308c-4.003 5.744-6.366 15.462-7.413 19.767-.271 1.114.008 3.059.944 4.388.54.767 1.202 1.198 1.97 1.279 5.663.601 11.532.604 15.7.011 1.545-.22 2.634-1.683 2.429-3.261l-1.995-21.952-1.445 1.682a.871.871 0 0 1-1.515-.39l-.523-2.514a.455.455 0 0 0-.501-.369.79.79 0 0 1-.12.007l-3.192-.031a.461.461 0 0 0-.298.227l-1.492 3.135a.871.871 0 0 1-.781.497h-.006a.873.873 0 0 1-.782-.487l-.98-1.989z" fill="#000"/><path d="M11.856 326.176c-2.257 0-4.7-.203-7.135-.764a.871.871 0 1 1 .392-1.7c8.088 1.865 16.58-.534 16.665-.559a.871.871 0 1 1 .484 1.675c-.26.076-4.748 1.348-10.406 1.348zM9.862 316.869a.872.872 0 0 1-.028-1.743l7.841-.262a.871.871 0 1 1 .058 1.742l-7.841.263h-.03zM103.888 140.599c3.299 19.488 9.298 67.382-3.654 103.207-11.148 30.831-19.104 46.185-22.162 51.761a4.189 4.189 0 0 1-4.214 2.152l-7.945-1.033c-2.355-.306-3.995-2.518-3.62-4.89 2.9-18.344 14.414-107.633 11.346-115.886L24.294 292.949a3.324 3.324 0 0 1-3.087 2.024l-8.336-.093c-1.857-.021-3.337-1.581-3.288-3.458 2.461-94.731 29.948-109.974 38.002-155.266.02-.107 2.637 3.078 2.736 3.135 8.063 4.713 12.099 4.347 24.47 5.029 13.382.737 25.812-4.358 28.743-4.22.223.01.315.273.354.499z" fill="#000"/><path d="m89.145 49.855 2.28-11.801a1.864 1.864 0 0 1 1.608-1.484l4.586-.528a2.202 2.202 0 0 0 1.917-1.853l1.037-6.582a.036.036 0 0 1 .017-.024l2.179-1.191c.433-.237.6-.78.375-1.224l-2.295-4.532c-.447-.882-1.06-5.862-2.039-5.813 0 0-16.503-5.8-21.357 1.114-1.286 1.83-1.428 4.247-.558 6.313l1.11 2.638c1.155 2.74 1.413 5.82.53 8.662a12.812 12.812 0 0 1-1.32 2.91l-6.201 9.758a33.185 33.185 0 0 0 14.5 3.583l3.631.054z" fill="#fff"/><path d="M89.146 50.727h-.014l-3.63-.055a34.255 34.255 0 0 1-14.882-3.677.87.87 0 0 1-.342-1.246l6.202-9.758a11.93 11.93 0 0 0 1.223-2.7c.793-2.554.615-5.418-.5-8.065l-1.11-2.637c-1.013-2.402-.764-5.143.647-7.153 5.003-7.125 20.58-2.044 22.239-1.477 1.223.142 1.662 2.11 2.21 4.568.143.64.338 1.516.439 1.715l2.294 4.532c.441.87.118 1.917-.735 2.383l-1.817.992-.974 6.175a3.083 3.083 0 0 1-2.677 2.583l-4.587.528a.992.992 0 0 0-.853.793l-2.278 11.79a.87.87 0 0 1-.855.709zm-16.873-4.865a32.516 32.516 0 0 0 13.254 3.066l2.9.044 2.142-11.084a2.734 2.734 0 0 1 2.364-2.185l4.586-.527a1.334 1.334 0 0 0 1.155-1.123l1.037-6.582a.936.936 0 0 1 .461-.653l2.179-1.191c.018-.01.028-.04.015-.066l-2.294-4.531c-.19-.375-.339-1.018-.585-2.123-.203-.91-.613-2.747-.941-3.253l-.025-.008c-.159-.056-15.937-5.502-20.355.792-1.07 1.523-1.249 3.62-.468 5.474l1.11 2.637c1.275 3.026 1.473 6.314.56 9.26a13.71 13.71 0 0 1-1.41 3.107l-5.685 8.946z" fill="#000"/><path d="M85.941 22.164c-.847-2.124-2.17-2.922-1.923-4.128.15-.728.775-1.185 1.13-1.445 1.765-1.293 4.087-.504 8.75.383 5.787 1.102 6.448 1.274 7.54.839 2.777-1.107 4.355-4.555 4.477-7.39.034-.796.104-5.02-3.449-7.198-2.565-1.573-6-1.454-8.773.29-.243-.82-.747-1.975-1.85-2.544-2.615-1.348-6.515 1.676-7.88 2.735-1.261.978-3.511 3.02-5.122 6.613-.515-.29-2.447-1.302-4.553-.622-3.132 1.01-3.901 4.872-3.968 5.238-.784 4.266 2.692 7.99 5.316 10.802 1.447 1.55 2.207 2.14 3.056 2.713a1.606 1.606 0 0 0 1.709.052 1.41 1.41 0 0 0 .508-1.965l-.133-.217c-.5-.816-.843-1.728-.947-2.683-.083-.761-.024-1.56.46-1.971.783-.664 2.115-.226 2.306-.163.976.32 1.588 1.05 1.965 1.745.404.743 1.757-.143 1.381-1.084z" fill="#000"/><path d="m209.569 52.331-46.342 26.948-46.303-26.982 46.828-27.273 45.817 27.307z" fill="#396DA6"/><path d="M163.227 80.15a.87.87 0 0 1-.439-.118L116.485 53.05a.872.872 0 0 1 0-1.507l46.828-27.273a.873.873 0 0 1 .886.005l45.817 27.307a.871.871 0 0 1-.008 1.503l-46.343 26.948a.874.874 0 0 1-.438.117zm-44.571-27.853 44.571 25.973 44.624-25.948-44.103-26.285-45.092 26.26z" fill="#000"/><path d="M163.236 133.842V79.054l46.524-26.818v54.161l-46.524 27.445z" fill="#7F766F"/><path d="M163.236 134.714a.873.873 0 0 1-.872-.872V79.054c0-.311.166-.6.436-.755l46.525-26.818a.874.874 0 0 1 1.307.755v54.161a.871.871 0 0 1-.429.751l-46.524 27.446a.878.878 0 0 1-.443.12zm.871-55.156v52.758l44.781-26.417V53.745l-44.781 25.813z" fill="#000"/><path d="M163.236 133.842V79.054l-46.121-26.853v54.329l46.121 27.312z" fill="#fff"/><path d="M163.236 134.714a.867.867 0 0 1-.444-.121l-46.121-27.313a.87.87 0 0 1-.428-.75V52.201a.872.872 0 0 1 1.31-.753l46.121 26.853a.872.872 0 0 1 .433.753v54.788a.872.872 0 0 1-.871.872zm-45.249-28.681 44.377 26.28V79.555l-44.377-25.837v52.315z" fill="#000"/><path d="m131.738 117.282 4.013-.208 4.714-.988 10.863-2.996a2.8 2.8 0 0 1 3.43 1.913 2.8 2.8 0 0 1-1.933 3.487l-6.402 1.785a1.247 1.247 0 0 0-.595 2.031 11.72 11.72 0 0 0 3.353 2.609c2.306 1.195 6.347 3.159 10.579 4.603 1.986.678 2.354 3.19.373 3.878l-13.617-.583a12.883 12.883 0 0 1-7.358-2.716c-4.992-3.884-7.42-12.815-7.42-12.815z" fill="#fff"/><path d="m160.133 134.269-.037-.001-13.616-.582a13.729 13.729 0 0 1-8.647-3.568l-1.694-1.659-12.037 1.527a.872.872 0 0 1-.22-1.73l12.456-1.58a.866.866 0 0 1 .72.243l1.973 1.932a11.958 11.958 0 0 0 7.523 3.093l13.432.575c.388-.176.591-.465.59-.845-.001-.476-.341-1.071-1.097-1.328-4.158-1.42-8.113-3.315-10.698-4.655a12.516 12.516 0 0 1-3.603-2.803 2.105 2.105 0 0 1-.452-2.008 2.108 2.108 0 0 1 1.463-1.444l6.402-1.784c.5-.14.914-.467 1.166-.921.253-.455.312-.981.165-1.481a1.938 1.938 0 0 0-2.362-1.319l-13.091 3.611a.74.74 0 0 1-.104.022c-.056.008-5.74.834-16.763 1.241a.873.873 0 0 1-.063-1.743c10.361-.382 15.936-1.133 16.521-1.216l13.037-3.596c1.921-.53 3.937.596 4.499 2.508a3.646 3.646 0 0 1-.314 2.819 3.641 3.641 0 0 1-2.222 1.753l-6.402 1.785a.361.361 0 0 0-.258.255.364.364 0 0 0 .08.356 10.838 10.838 0 0 0 3.104 2.416c2.074 1.074 6.189 3.094 10.459 4.552 1.359.464 2.274 1.659 2.277 2.974.004 1.166-.725 2.144-1.9 2.552a.849.849 0 0 1-.287.049z" fill="#000"/><path d="M197.956 46.658c-.318 1.655-1.552 5.898-4.72 7.255-1.329.57-2.864.32-4.061-.493-3.361-2.282-2.583-4.57-1.263-9.358.37-1.344.362-2.437.254-3.481a2.245 2.245 0 0 0-1.035-1.681l-5.162-3.22s1.915-2.566 3.923-2.453c1.756.1 4.801 2.79 5.317 2.551 5.766-2.681 8.015 4.273 6.747 10.88z" fill="#fff"/><path d="M191.701 55.096c-1.034 0-2.085-.324-3.016-.955-3.761-2.554-3.004-5.29-1.75-9.82l.136-.49c.356-1.292.315-2.322.227-3.16a1.366 1.366 0 0 0-.629-1.032l-5.966-3.722.567-.76c.225-.3 2.261-2.938 4.671-2.8 1.232.07 2.758 1.038 3.984 1.816.388.246.895.567 1.168.702 2.535-1.085 4.259-.395 5.267.393 2.806 2.19 3.254 7.381 2.453 11.555-.198 1.028-1.377 6.241-5.233 7.892a4.763 4.763 0 0 1-1.879.381zM183.3 35.482l4.292 2.678a3.099 3.099 0 0 1 1.44 2.33c.104 1 .152 2.233-.28 3.803l-.136.492c-1.302 4.705-1.562 6.141 1.048 7.913 1.017.69 2.223.844 3.229.413 3.109-1.332 4.103-6.08 4.206-6.617.816-4.252.054-8.396-1.812-9.852-.958-.748-2.207-.773-3.711-.074-.653.303-1.298-.106-2.586-.923-.943-.599-2.369-1.503-3.148-1.548-.883-.05-1.875.716-2.542 1.385z" fill="#000"/><path d="m472.946 308.567-.712 14.058-8.769 1.585-.78-16.58 10.261.937z" fill="#fff"/><path d="M463.465 325.082a.874.874 0 0 1-.872-.831l-.78-16.581a.87.87 0 0 1 .951-.909l10.261.938a.87.87 0 0 1 .791.912l-.711 14.058a.872.872 0 0 1-.716.814l-8.769 1.585a.911.911 0 0 1-.155.014zm.137-16.493.687 14.586 7.109-1.285.634-12.531-8.43-.77z" fill="#000"/><path d="M463.22 348.628c3.703.356 9.755.518 16.782-.915 2.304-.47 3.728-2.964 3.054-5.371-1.878-6.705-5.169-19.436-10.058-25.155l-.992 3.299-1.725-2.962a1.391 1.391 0 0 0-1.083-.703l-2.371-.283c-.728-.059-1.376.49-1.491 1.264l-.419 2.838-2.496-3.621-2.765 27.058c-.174 2.307 1.413 4.345 3.564 4.551z" fill="#396DA6"/><path d="M468.459 349.746c-2.051 0-3.848-.108-5.322-.25-2.608-.25-4.56-2.711-4.351-5.485l2.768-27.081a.873.873 0 0 1 1.585-.407l1.239 1.798.096-.647c.181-1.22 1.243-2.1 2.424-2.006l2.403.287c.694.056 1.355.479 1.733 1.13l.715 1.227.414-1.376a.871.871 0 0 1 1.497-.316c4.682 5.478 7.906 17.098 9.832 24.041l.403 1.446a5.347 5.347 0 0 1-.573 4.216c-.721 1.18-1.838 1.977-3.146 2.243a58.72 58.72 0 0 1-11.717 1.18zm-5.155-1.986c3.753.36 9.666.496 16.525-.901.827-.168 1.54-.682 2.005-1.444a3.6 3.6 0 0 0 .383-2.837l-.404-1.449c-1.741-6.276-4.564-16.453-8.469-22.062l-.503 1.671a.872.872 0 0 1-1.589.188l-1.724-2.962a.527.527 0 0 0-.401-.273l-2.403-.286c-.23-.017-.478.211-.525.525l-.419 2.838a.872.872 0 0 1-1.58.367l-1.152-1.671-2.524 24.702c-.137 1.811 1.11 3.434 2.78 3.594z" fill="#000"/><path d="M471.197 345.115c-4.952 0-8.689-.907-8.933-.968a.873.873 0 0 1 .421-1.692c.09.022 9.171 2.218 17.602-.326a.872.872 0 0 1 .504 1.67c-3.308.998-6.664 1.316-9.594 1.316zM466.591 334.703a.872.872 0 0 1-.016-1.743l8.283-.154a.878.878 0 0 1 .888.856.873.873 0 0 1-.856.888l-8.283.154-.016-.001z" fill="#000"/><path d="m431.276 303.355-.362 20.478-10.615.573-1.454-20.38 12.431-.671z" fill="#fff"/><path d="M420.298 325.278a.872.872 0 0 1-.869-.809l-1.454-20.381a.867.867 0 0 1 .216-.638.865.865 0 0 1 .607-.294l12.43-.672a.87.87 0 0 1 .919.886l-.361 20.478a.872.872 0 0 1-.825.855l-10.616.573c-.016.002-.032.002-.047.002zm-.52-20.429 1.329 18.641 8.95-.484.331-18.73-10.61.573z" fill="#000"/><path d="M434.229 335.203c.117 1.929-1.034 3.69-2.768 4.222-6.031 1.853-19.618 5.985-23.51 6.823-5.051 1.087-11.385-.246-14.224-3.291-2.839-3.046 1.554-9.272 9.517-14.13 6.303-3.845 11.464-12.906 13.921-13.406 2.457-.5 7.436 6.943 7.436 6.943l7.389-3.806c.001-.001 1.643 6.861 2.239 16.645z" fill="#396DA6"/><path d="M404.302 347.493c-4.448 0-8.925-1.488-11.212-3.942-.879-.942-1.241-2.178-1.05-3.575.493-3.592 4.612-8.149 10.75-11.893 3.351-2.044 6.428-5.687 8.901-8.615 2.491-2.949 3.965-4.63 5.3-4.902 2.536-.517 6.282 4.354 7.896 6.67l6.704-3.454a.876.876 0 0 1 1.248.572c.017.069 1.667 7.049 2.261 16.795.141 2.315-1.281 4.464-3.381 5.109-5.775 1.774-19.633 5.991-23.584 6.841a18.19 18.19 0 0 1-3.833.394zm13.15-31.229a.604.604 0 0 0-.114.011c-.806.165-2.671 2.371-4.315 4.318-2.554 3.024-5.733 6.788-9.325 8.978-5.616 3.426-9.514 7.603-9.93 10.642-.122.885.074 1.587.597 2.149 2.534 2.718 8.546 4.079 13.402 3.034 3.884-.836 17.685-5.037 23.439-6.803 1.34-.412 2.245-1.815 2.153-3.337-.449-7.359-1.505-13.102-1.98-15.403l-6.378 3.286a.874.874 0 0 1-1.125-.29c-2.176-3.253-5.212-6.585-6.424-6.585z" fill="#000"/><path d="M403.829 343.744c-3.364 0-6.327-.696-8.38-2.49a.871.871 0 1 1 1.148-1.312c8.077 7.059 34.173-5.92 34.435-6.051a.871.871 0 1 1 .783 1.558c-.859.431-16.679 8.295-27.986 8.295zM416.412 330.721a.87.87 0 0 1-.573-.215l-5.645-4.928a.872.872 0 0 1 1.147-1.313l5.644 4.928a.872.872 0 0 1-.573 1.528zM441.278 178.951s40.463 1.2 36.282-12.49c-2.658-8.705-31.943-.433-40.483 2.361-1.459.478-35.974-2.858-35.974-2.858l9.363 18.917 30.812-5.93z" fill="#000"/><path d="M469.011 164.982s6.626 66.56 9.383 88.489c2.758 21.928-1.323 57.638-1.323 57.638l-16.429-.037s-2.501-34.149-4.305-49.986a30.142 30.142 0 0 0-2.349-8.671c-2.43-5.552-6.775-16.331-8.688-26.378-2.731-14.34-10.793-36.788-10.793-36.788s-.314 114.234-.44 123.214c0 0-12.819 1.307-17.572-1.549 0 0-10.117-41.101-10.009-63.766.109-22.665-3.82-78.75-3.82-78.75l66.345-3.416z" fill="#396DA6"/><path d="M435.407 70.414s15.323 8.754 20.983 22.617c3.396 8.317 2.397 22.572 3.536 30.674 3.035 21.605 17.121 41.668 17.121 41.668s-2.491-3.329-11.165 3.245c-8.078 6.123-15.565 10.734-32.388 10.888-15.214.139-24.348-1.418-29.543-2.888-3.441-.975-5.627-4.337-5.092-7.873.772-5.106 1.718-13.089 1.537-20.664-.255-10.631-7.574-30.47-7.574-30.47s-26.136-14.717-27.718-27.787c0 0 17.403-15.54 36.65-17.977 20.005-2.532 33.653-1.433 33.653-1.433z" fill="#000"/><path d="M434.002 105.933s7.33 12.121-2.84 19.471l39.501 13.525 3.431-17.442c4.266-22.708-10.006-45.048-32.559-50.072a50.887 50.887 0 0 0-6.611-1.027l-.922 35.545z" fill="#000"/><path d="m398.545 96.63-46.343 26.947-46.302-26.98 46.828-27.274 45.817 27.307z" fill="#396DA6"/><path d="M352.202 124.449a.874.874 0 0 1-.439-.118L305.46 97.349a.874.874 0 0 1 0-1.507l46.829-27.272a.871.871 0 0 1 .885.004l45.817 27.307a.872.872 0 0 1-.008 1.503L352.64 124.33a.865.865 0 0 1-.438.118zm-44.57-27.853 44.571 25.973 44.624-25.948-44.104-26.286-45.091 26.261z" fill="#000"/><path d="M352.212 178.141v-54.788l46.524-26.819v54.161l-46.524 27.446z" fill="#7F766F"/><path d="M352.211 179.013a.873.873 0 0 1-.871-.872v-54.788c0-.311.166-.6.436-.756l46.525-26.818a.87.87 0 0 1 1.307.755v54.161a.873.873 0 0 1-.429.751l-46.525 27.446a.866.866 0 0 1-.443.121zm.872-55.156v52.758l44.781-26.418V98.043l-44.781 25.814z" fill="#000"/><path d="M352.212 178.141v-54.788l-46.121-26.852v54.327l46.121 27.313z" fill="#fff"/><path d="M352.212 179.013a.877.877 0 0 1-.444-.121l-46.121-27.313a.87.87 0 0 1-.428-.751V96.5a.872.872 0 0 1 1.31-.753l46.121 26.852a.873.873 0 0 1 .433.753v54.789a.871.871 0 0 1-.871.872zm-45.249-28.681 44.377 26.279v-52.757l-44.377-25.837v52.315z" fill="#000"/><path d="M437.428 125.673s-17.169 17.825-38.725 17.453c-11.511-.198-17.776-3.18-24.759-5.63-5.417-1.9-8.516-4.979-10.688-7.234-1.214-1.26-3.121-3.035-4.817-3.69a3.425 3.425 0 0 0-1.463-.213c-3.8.262 1.807 6.47 1.807 6.47a1.149 1.149 0 0 1-.943 1.594l-2.381.234c-1.481-.041-2.952-.399-4.914-1.632l-3.928-2.92c-1.107-.588-2.529-.322-3.234.714-.298.439-.553 1.755-.523 2.324.116 2.203-.933 9.555 7.84 12.741 6.678 2.425 11.582-.862 14.279-.449 1.967.301 24.136 16.663 49.11 14.919 37.613-2.627 50.037-24.924 50.037-24.924l-26.698-9.757z" fill="#fff"/><path d="M410.352 161.354c-19.106.001-36.099-9.748-42.754-13.565-1.272-.73-2.475-1.42-2.774-1.497-.721-.11-1.838.164-3.132.48-2.798.685-6.631 1.623-11.291-.069-8.424-3.059-8.409-9.82-8.402-12.707 0-.316.002-.589-.01-.807-.036-.683.236-2.22.672-2.86.944-1.387 2.82-1.815 4.364-.994.039.02.077.044.111.07l3.901 2.9c1.594.997 2.872 1.428 4.392 1.479l2.325-.229a.27.27 0 0 0 .211-.135.278.278 0 0 0 .039-.155c-1.078-1.216-3.856-4.618-3.076-6.551.206-.51.719-1.138 1.988-1.225a4.292 4.292 0 0 1 1.837.269c1.81.7 3.789 2.506 5.131 3.899 1.842 1.912 4.924 5.113 10.348 7.016 1.015.355 2.014.722 3.017 1.091 5.787 2.125 11.77 4.322 21.468 4.489 20.921.366 37.914-17.011 38.083-17.186a.87.87 0 0 1 .927-.214l26.697 9.756a.873.873 0 0 1 .462 1.243c-.13.235-3.285 5.804-11.149 11.749-7.218 5.457-19.945 12.249-39.589 13.621-1.271.09-2.54.132-3.796.132zm-45.882-16.827c.22 0 .434.014.641.045.498.077 1.252.498 3.355 1.705 6.966 3.995 25.469 14.608 45.562 13.206 32.422-2.264 45.993-19.506 48.779-23.607l-25.158-9.195c-2.754 2.674-19.129 17.655-38.961 17.317-9.993-.172-16.117-2.422-22.04-4.597a219.6 219.6 0 0 0-2.992-1.082c-5.366-1.882-8.506-4.833-11.028-7.452-1.723-1.789-3.322-3.026-4.503-3.482a2.573 2.573 0 0 0-1.089-.156c-.338.023-.476.103-.491.138-.245.608 1.13 2.932 2.885 4.878a.864.864 0 0 1 .155.241 2.002 2.002 0 0 1-.12 1.823 2 2 0 0 1-1.539.981l-2.382.235a1.356 1.356 0 0 1-.109.004c-1.866-.052-3.467-.58-5.354-1.766a.718.718 0 0 1-.057-.039l-3.87-2.877c-.736-.359-1.626-.163-2.052.462-.152.234-.397 1.323-.372 1.787.013.245.013.55.012.904-.006 2.734-.019 8.423 7.254 11.064 4.162 1.511 7.555.681 10.281.015 1.194-.293 2.256-.552 3.193-.552z" fill="#000"/><path d="M433.315 126.365a.872.872 0 0 1-.675-1.423c5.83-7.15 2.666-26.926 2.634-27.125a.872.872 0 1 1 1.72-.283c.139.844 3.318 20.757-3.003 28.51a.87.87 0 0 1-.676.321z" fill="#9DCCFF"/><path d="m332.609 81.14-8.87 5.204c-2.91 1.784-4.503 6.78-4.503 6.78-3.476 8.709-8.025 5.598-6.269.379.78-2.318-1.338-1.162-3.371 1.159-1.852 2.112-3.2 6.659-4.991 5.833-3.274-1.511-.917-13.558 7.742-17.715 7.293-3.499 20.262-1.64 20.262-1.64z" fill="#fff"/><path d="M305.058 101.479c-.26 0-.531-.06-.817-.192-1.221-.563-1.902-2.042-1.918-4.163-.033-4.343 2.938-11.909 9.648-15.13 7.444-3.573 20.222-1.794 20.763-1.717a.872.872 0 0 1 .318 1.616l-8.871 5.204c-2.589 1.587-4.098 6.247-4.113 6.293a6.41 6.41 0 0 1-.021.06c-2.105 5.27-4.667 6.48-6.365 5.857-1.753-.645-2.431-3.095-1.636-5.775-.453.334-1.072.883-1.793 1.705-.59.674-1.154 1.672-1.7 2.638-.963 1.705-2.036 3.604-3.495 3.604zm19.762-19.956c-3.983 0-8.711.42-12.094 2.044-6.022 2.89-8.688 9.66-8.659 13.544.01 1.346.357 2.34.905 2.592.436.2 1.493-1.677 2.063-2.685.588-1.043 1.198-2.122 1.907-2.93 1.113-1.271 3.172-3.293 4.45-2.558.646.371.781 1.129.404 2.251-.726 2.154-.182 3.642.489 3.889.766.281 2.502-.775 4.132-4.841.157-.482 1.81-5.353 4.868-7.227l6.594-3.87a63.687 63.687 0 0 0-5.059-.209z" fill="#000"/><path d="m424.744 70.791-6.935-22.569-14.428 7.677 4.162 14.246a4.744 4.744 0 0 1-2.153 5.372l-1.673.988c-.862.51-.615 1.818.373 1.977l7.617 1.234a33.713 33.713 0 0 0 21.309-3.56c.935-.502.778-1.887-.247-2.164-3.132-.844-7.716-2.233-8.025-3.2z" fill="#fff"/><path d="M417.048 81.016c-1.832 0-3.665-.145-5.48-.44l-7.617-1.233a1.924 1.924 0 0 1-1.598-1.558 1.924 1.924 0 0 1 .921-2.032l1.673-.988a3.873 3.873 0 0 0 1.756-4.384l-4.159-14.239a.873.873 0 0 1 .428-1.014l14.427-7.677a.872.872 0 0 1 1.243.514l6.911 22.49c.177.18 1.293 1.037 7.443 2.695a2.03 2.03 0 0 1 1.497 1.738 2.033 2.033 0 0 1-1.066 2.036 34.794 34.794 0 0 1-16.379 4.092zm-12.631-24.68L408.38 69.9a5.622 5.622 0 0 1-2.546 6.367l-1.673.988a.18.18 0 0 0-.094.207.18.18 0 0 0 .162.16l7.617 1.233a33.02 33.02 0 0 0 20.757-3.468.285.285 0 0 0 .158-.3.28.28 0 0 0-.219-.253c-8.121-2.19-8.45-3.222-8.628-3.778l-.003-.009-6.625-21.56-12.869 6.847z" fill="#000"/><path d="M385.235 32.96c3.713-1.98.705 4.156 12.935-6.468 4.87-4.231 5.014 3.634 6.28 2.54 4.676-4.04 5.975-5.089 8.919-5.611 1.949-.346 7.2 1.396 7.694 4.01 1.61 8.532-2.717 8.076-1.985 15.827.514 5.444-.152 7.481-1.722 9.035-1.587 1.57-4.155-.335-6.018 1.25-2.41 2.05.314 6.582-1.472 9.807-1.126 2.034-4.809 4.435-12.535 4.277a2.599 2.599 0 0 1-2.509-2.19c-.256-1.594-.567-3.608-.705-5.558-.656-9.295 1.351-12.391-.608-13.973-3.001-2.424-8.134 2.13-10.298-.001-2.248-2.213-3.06-10.235 2.024-12.945z" fill="#000"/><path d="m404.764 40.475-.164 2.54a26.082 26.082 0 0 0 .015 3.591c.165 2.242.297 6.103.397 8.272.322 6.976-9.864 3.848-9.864 3.848l-1.242-1.388-1.154.052a1.28 1.28 0 0 1-.649-.129 1.237 1.237 0 0 1-.653-1.306c.477-2.82 1.314-9.044.432-13.878 0 .001 5.484-4.47 12.882-1.602z" fill="#fff"/><path d="M399.766 60.292c-2.444 0-4.72-.685-4.874-.733a.87.87 0 0 1-.394-.252l-.966-1.08-.741.034a2.147 2.147 0 0 1-1.09-.226 2.107 2.107 0 0 1-1.11-2.225c.421-2.491 1.305-8.802.434-13.576a.87.87 0 0 1 .307-.832c.24-.196 5.966-4.757 13.747-1.74.355.137.58.489.555.868l-.164 2.54a25.291 25.291 0 0 0 .016 3.472c.12 1.636.224 4.16.308 6.186.032.785.062 1.512.09 2.11.086 1.872-.489 3.3-1.708 4.246-1.19.924-2.835 1.208-4.41 1.208zm-4.135-2.333c1.66.464 5.641 1.172 7.478-.254.754-.586 1.092-1.497 1.033-2.787-.028-.6-.058-1.33-.091-2.117-.083-2.014-.187-4.521-.305-6.13a27.03 27.03 0 0 1-.016-3.712l.122-1.887c-5.467-1.84-9.734.54-11.019 1.397.737 4.767-.001 10.543-.522 13.632a.362.362 0 0 0 .196.388.437.437 0 0 0 .206.031l1.154-.052a.876.876 0 0 1 .689.29l1.075 1.201z" fill="#000"/><path d="M406.46 48.296s.386-6.108 3.112-5.346c2.726.762 2.133 7.476-3.112 5.346z" fill="#fff"/><path d="M396.228 54.337a2.54 2.54 0 0 1-.849-.147c-1.124-.397-2.04-1.546-2.801-3.512-.617-1.593-.564-2.759.163-3.564.529-.587 1.224-.923 1.957-.947.608-.02 1.191.188 1.583.57 1.998 1.948 2.523 4.123 2.347 5.508-.1.795-.428 1.389-.922 1.672-.488.28-.988.42-1.478.42zm-1.451-6.428-.023.001c-.147.005-.437.06-.719.372-.314.348-.029 1.256.169 1.766.732 1.893 1.414 2.378 1.756 2.5.161.056.419.104.827-.116.218-.354.417-2.358-1.725-4.447-.026-.026-.128-.076-.285-.076zm-1.389-.211h.005-.005z" fill="#000"/><path d="M394.378 47.924a.873.873 0 0 1-.263-1.703l12.614-3.986a.872.872 0 0 1 .525 1.662l-12.614 3.986a.87.87 0 0 1-.262.04zM391.274 55.308h-.004c-.476-.002-1.026-.343-1.633-1.016-.453-.503-1.916-2.316-1.695-4.556.068-.69.385-1.253.916-1.63 1.201-.852 3.106-.421 3.319-.37a.872.872 0 0 1-.411 1.696c-.549-.13-1.502-.186-1.901.098-.084.06-.165.148-.188.378-.167 1.69 1.273 3.395 1.754 3.671a.873.873 0 0 1-.157 1.73zm.003-1.743h.001-.001z" fill="#000"/><path d="M415.957 463.817s11.207 3.792 17.712 2.009c0 0 8.174 6.985 8.1 10.717l-28.385-.305 2.573-12.421z" fill="#fff"/><path d="m442.623 477.424-30.308-.325 2.988-14.423.933.315c.11.038 11.032 3.685 17.203 1.994l.446-.122.351.3c.869.742 8.484 7.37 8.403 11.397l-.016.864zm-28.17-2.047 26.299.283c-.787-2.498-4.606-6.509-7.31-8.878-5.647 1.305-14.025-.985-16.827-1.841l-2.162 10.436z" fill="#000"/><path d="M426.85 465.839s5.673-10.726 8.715-11.339c2.564-.517 26.038 15.283 33.552 20.601 1.33.941 1.143 3.009-.349 3.642-3.697 1.57-13.378 3.287-34.205-.514a2.96 2.96 0 0 1-2.3-2.065l-.334-1.114a5.1 5.1 0 0 1 3.489-6.37l-8.568-2.841z" fill="#fff"/><path d="M456.229 481.388c-5.282 0-12.384-.579-21.823-2.302a3.811 3.811 0 0 1-2.977-2.671l-.335-1.114a5.933 5.933 0 0 1 .483-4.585 5.952 5.952 0 0 1 1.59-1.865l-6.591-2.185a.87.87 0 0 1-.497-1.235c.98-1.853 6.033-11.125 9.314-11.786 3.586-.725 33.924 20.529 34.228 20.744a3.003 3.003 0 0 1 1.244 2.771 2.889 2.889 0 0 1-1.756 2.386c-1.694.719-5.522 1.842-12.88 1.842zm-28.118-16.05 7.581 2.514a.87.87 0 0 1-.036 1.666 4.2 4.2 0 0 0-2.551 2.036 4.196 4.196 0 0 0-.341 3.246l.334 1.114a2.078 2.078 0 0 0 1.621 1.457c22.122 4.038 30.943 1.744 33.709.57.567-.241.681-.756.703-.967a1.238 1.238 0 0 0-.517-1.161c-10.22-7.232-30.417-20.454-32.891-20.454h-.02c-1.662.338-5.267 5.761-7.592 9.979z" fill="#000"/><path d="M467.875 479.429a.87.87 0 0 1-.467-.136l-32.703-20.787a.87.87 0 0 1-.268-1.203.87.87 0 0 1 1.203-.268l32.704 20.787a.872.872 0 0 1-.469 1.607z" fill="#000"/><path d="M325.447 476.992c-.024-2.66-.069-6.871-.148-12.276l-7.922 1.128-6.557-6.022s-18.813 6.882-27.925 15.582c-1.697 1.621-.838 4.503 1.47 4.855 6.949 1.061 23.041 2.061 37.912.362 1.82-.207 3.187-1.776 3.17-3.629z" fill="#fff"/><path d="M304.955 482.412c-8.721 0-16.381-.628-20.721-1.291a3.625 3.625 0 0 1-2.926-2.515 3.72 3.72 0 0 1 .985-3.833c9.139-8.725 27.453-15.487 28.228-15.77a.872.872 0 0 1 .89.177l6.252 5.742 7.514-1.07a.874.874 0 0 1 .995.851c.078 5.407.123 9.62.147 12.28.022 2.309-1.674 4.245-3.943 4.504-5.847.669-11.851.925-17.421.925zm5.671-21.585c-3.019 1.154-19.07 7.514-27.128 15.208a1.961 1.961 0 0 0-.528 2.047 1.87 1.87 0 0 0 1.526 1.315c7.021 1.073 22.849 2.053 37.681.359 1.38-.158 2.411-1.343 2.398-2.756a2167.21 2167.21 0 0 0-.134-11.281l-6.942.988a.87.87 0 0 1-.712-.22l-6.161-5.66z" fill="#000"/><path d="M309.279 478.097c-6.301 0-15.073-.321-23.22-1.729a.872.872 0 1 1 .297-1.718c14.681 2.538 31.448 1.494 31.616 1.483a.874.874 0 0 1 .927.814.873.873 0 0 1-.814.926c-.077.005-3.597.224-8.806.224z" fill="#000"/><path d="M381.781 391.346c-.382-.323-31.457-23.941-45.46-19.127-16.364 5.625-13.728 50.577-13.383 63.815.335 12.89 60.843-25.805 62.706-29.198 1.843-3.355 2.974-9.693-3.863-15.49z" fill="#396DA6"/><path d="m323.488 432.7-.164.146c-10.434 9.425-17.822 19.403-13.983 30.863 8.217 24.53 101.316 17.046 111.109 16.735 2.029-.064 3.312-3.28 3.282-5.333l.328-11.651a3.771 3.771 0 0 0-1.835-3.19c-5.924-3.53-21.721-12.059-46.903-11.087-.836.032-14.127 1.533-13.292 1.477 17.846-1.19 45.037 1.215 51.856-2.626 28.553-16.082 16.05-39.206 13.549-49.818-7.3-30.973-52.876 1.362-53.193 1.439l-.002.001c-.091.054-6.168 3.623-14.19 8.524l-36.562 24.52z" fill="#396DA6"/><path d="M320.513 434.957a.871.871 0 0 1-.534-1.561c.422-.327.937-.736 1.539-1.215 7.065-5.621 25.832-20.552 49.454-24.819a.873.873 0 0 1 .31 1.717c-23.189 4.189-41.707 18.921-48.678 24.467-.609.485-1.13.899-1.558 1.23a.873.873 0 0 1-.533.181z" fill="#9DCCFF"/><path d="M419.356 458.315a.868.868 0 0 1-.384-.09c-18.526-9.102-50.281-9.318-50.6-9.319a.873.873 0 0 1-.869-.875c.002-.481.414-.88.875-.869.323.001 32.474.217 51.363 9.498a.872.872 0 0 1-.385 1.655zM361.089 316.175s-29.771 18.994-39.778 18.189c-13.332-1.073-27.284-21.429-28.369-23.175-1.084-1.747-5.575-11.366-8.602-14.288-2.844-2.745-5.115-5.806-6.429-7.721-.792-1.154-1.885-1.434-2.682-.971-.701.406-1.765 1.876-.611 3.608 1.335 2.002 2.62 4.039 3.743 5.759.353.542.807 1.006.234.748-1.333-.603-2.955-1.072-3.793-.331-1.575 1.394-1.103 8.43 2.794 12.622 3.897 4.192 6.834 2.399 8.286 4.523 1.451 2.125 15.959 31.905 26.914 35.099 17.385 5.07 48.801-8.083 53.724-9.268 4.922-1.185-5.431-24.794-5.431-24.794z" fill="#fff"/><path d="M322.155 352.279c-3.444 0-6.7-.358-9.603-1.204-9.635-2.809-21.467-24.608-25.921-32.814-.711-1.309-1.273-2.344-1.469-2.631-.403-.59-.959-.736-2.077-.985-1.561-.348-3.698-.823-6.127-3.437-2.873-3.09-4.007-7.574-3.857-10.648.051-1.061.289-2.482 1.123-3.22.619-.548 1.494-.719 2.612-.514l-.512-.795c-.772-1.198-1.591-2.471-2.431-3.731-.745-1.119-.723-2.125-.572-2.771.242-1.041.944-1.769 1.472-2.075 1.26-.732 2.839-.225 3.838 1.232 1.383 2.015 3.601 4.967 6.316 7.587 2.358 2.276 5.366 8.058 7.358 11.884.626 1.203 1.12 2.154 1.379 2.571.134.216 14.274 21.686 27.699 22.766 9.602.767 38.943-17.867 39.239-18.055l.858-.548.409.932c.896 2.042 8.681 20.082 6.385 24.71-.335.676-.871 1.119-1.549 1.283-.827.199-2.568.796-4.77 1.553-9.053 3.109-25.941 8.91-39.8 8.91zm-46.169-53.796c-.295 0-.495.064-.606.163-.171.151-.476.742-.538 2-.128 2.621.88 6.672 3.393 9.376 2.06 2.216 3.743 2.591 5.229 2.921 1.197.267 2.328.519 3.138 1.703.246.361.741 1.273 1.561 2.784 3.942 7.263 15.94 29.365 24.876 31.971 14.055 4.097 38.086-4.155 48.348-7.68 2.334-.801 4.021-1.381 4.928-1.599.121-.029.263-.096.395-.363 1.398-2.817-2.798-14.78-6.017-22.303-5.075 3.179-30.135 18.528-39.451 17.778-14.251-1.147-28.901-23.361-29.041-23.585-.294-.473-.777-1.402-1.445-2.686-1.821-3.499-4.869-9.356-7.022-11.434-2.82-2.721-5.114-5.774-6.542-7.856-.469-.682-1.082-.967-1.526-.71-.19.11-.534.469-.648.962-.106.453.004.927.325 1.409.844 1.267 1.669 2.548 2.446 3.754.452.702.887 1.378 1.301 2.011.075.116.156.228.228.328.271.375.679.943.217 1.509-.21.256-.605.495-1.299.182-1.028-.464-1.767-.635-2.25-.635z" fill="#000"/><path d="M375.815 369.593s-26.339-6.235-34.544-5.908c-4.93.197-15.426 5-16.984 9.026-1.97 5.087-.985 11.159.656 10.831 1.374-.275 5.28-7.109 8.44-9.902.496-.438 1.248.084 1.011.702-.829 2.16-3.523 5.419-2.86 6.082.985.984 3.501 0 5.033-1.75.974-1.113 2.817-5.798 4.458-6.291 1.641-.492 22.974 3.774 39.713 18.872l-4.923-21.662z" fill="#fff"/><path d="m382.198 393.746-2.044-1.843c-16.379-14.774-37.069-18.999-38.908-18.677-.709.214-1.976 2.54-2.657 3.789-.542.995-.97 1.781-1.366 2.234-1.233 1.409-3.034 2.388-4.479 2.436-.747.026-1.38-.197-1.826-.644-.881-.88-.066-2.222 1.165-4.252.312-.514.63-1.038.905-1.535-1.229 1.323-2.537 3.096-3.72 4.701-2.111 2.861-3.169 4.245-4.154 4.442-.341.068-1.001.076-1.599-.634-1.407-1.672-1.732-7.002-.042-11.366 1.73-4.469 12.646-9.377 17.763-9.582 8.229-.332 33.699 5.675 34.779 5.931l.529.125 5.654 24.875zm-40.79-22.261c4.103 0 22.632 4.632 37.89 17.366l-4.213-18.532c-3.758-.873-26.427-6.052-33.779-5.762-4.872.196-14.879 5.04-16.206 8.47-1.723 4.452-.935 8.926-.256 9.62.537-.36 1.964-2.296 3.02-3.727 1.555-2.108 3.317-4.496 4.942-5.933a1.485 1.485 0 0 1 1.855-.108c.58.403.8 1.116.547 1.775-.361.942-1.008 2.009-1.634 3.04-.425.701-1.037 1.709-1.219 2.219.116.03.244.032.33.03.826-.028 2.199-.669 3.226-1.843.268-.307.715-1.127 1.147-1.919 1.342-2.462 2.394-4.235 3.717-4.632.14-.043.353-.064.633-.064z" fill="#000"/><path d="M419.032 353.815c.105 21.03 5.767 35.186 6.738 37.561 1.687 4.122 1.867 5.156 1.436 6.246-.437 1.105-3.963 2.115-5.403 2.676-13.185 5.131-39.313 10.59-42.761-4.137-1.958-8.363-1.787-17.901-7.932-28.755-4.673-8.254-7.906-15.953-10.14-22.768-.152-.465-7.936 3.104-8.078 2.647-5.327-16.984-7.604-23.466-7.604-23.466s20.571-12.864 33.361-15.912c15.234-3.63 29.453-3.634 35.565 7.533 7.121 13.01 4.815 37.855 4.818 38.375zM403.057 264.006c3.807 4.021.964 6.718 5.412 15.426 3.267 6.397 6.487 8.244 5.901 12.103-.528 3.477-3.696 5.636-5.789 7.062-9.499 6.475-21.238 4.239-28.446 2.867-5.832-1.11-13.827-2.633-14.485-6.45-.65-3.768 6.606-5.43 8.092-12.531 1.195-5.712-2.831-7.841-1.266-12.843 2.026-6.472 10.626-8.853 12.006-9.235 5.534-1.531 13.887-1.351 18.575 3.601z" fill="#000"/><path d="M398.242 262.801s-1.508-11.305 7.917-10.997c9.424.308 3.847 11.687-2.396 14.335-6.243 2.649-5.521-3.338-5.521-3.338z" fill="#000"/><path d="M376.023 277.125a1.662 1.662 0 0 0-2.445.871c-.098.285-.191.55-.262.751-.246.689-.722 2.795-2.46 5.058a2.342 2.342 0 0 0 .066 2.928l.317.379c.413.493.602 1.134.519 1.773-.206 1.589-.579 4.585-.557 5.24.03.901.621 1.778.942 2.017.622.463 2.969.614 4.17.661a1.634 1.634 0 0 1 1.386.86c.425.801 1.017 2.361 1.671 5.395.542 2.518-1.488 5.095-3.207 6.76-.91.881-.526 2.423.69 2.777 4.732 1.375 14.522 3.383 23.137-.208.735-.307.776-1.361.138-1.841-2.522-1.898-7.95-6.516-10.127-12.53a1.37 1.37 0 0 0-.75-.801c-1.4-.597-5.16-1.67-4.708-7.842.034-.466.191-.917.454-1.305 1.11-1.637 3.923-6.465-2.125-5.726-4.312.528-5.626-2.63-5.998-4.078a1.909 1.909 0 0 0-.851-1.139z" fill="#fff"/><path d="M389.024 315.287c-4.973 0-9.482-1.003-12.413-1.855a2.502 2.502 0 0 1-1.746-1.819 2.5 2.5 0 0 1 .693-2.422c1.31-1.27 3.438-3.731 2.961-5.95-.652-3.028-1.224-4.482-1.588-5.17a.765.765 0 0 0-.65-.397c-3.737-.147-4.406-.646-4.658-.834-.497-.37-1.251-1.48-1.291-2.686-.018-.54.171-2.35.563-5.381a1.434 1.434 0 0 0-.323-1.101l-.318-.379a3.235 3.235 0 0 1-.089-4.019c1.388-1.806 1.912-3.489 2.193-4.393.053-.172.099-.316.138-.425l.259-.743a2.516 2.516 0 0 1 1.546-1.561 2.518 2.518 0 0 1 2.183.233 2.766 2.766 0 0 1 1.235 1.662c.377 1.465 1.535 3.86 5.049 3.429 2.255-.275 3.681.132 4.361 1.245.998 1.636-.216 4.076-1.41 5.836a1.807 1.807 0 0 0-.306.88c-.375 5.133 2.381 6.247 3.863 6.845.116.046.222.089.318.13a2.258 2.258 0 0 1 1.229 1.307c2.124 5.87 7.583 10.439 9.83 12.13.572.43.871 1.144.78 1.862a1.82 1.82 0 0 1-1.107 1.48c-3.722 1.551-7.638 2.095-11.302 2.096zm-13.874-37.539a.788.788 0 0 0-.748.533c-.099.288-.192.555-.264.758a11.18 11.18 0 0 0-.116.36c-.291.936-.897 2.884-2.474 4.937a1.478 1.478 0 0 0 .043 1.837l.317.379c.568.678.829 1.569.715 2.444-.531 4.108-.555 4.942-.55 5.1.021.619.458 1.238.595 1.349.187.122 1.21.39 3.68.487a2.517 2.517 0 0 1 2.122 1.322c.605 1.142 1.195 3.032 1.752 5.62.623 2.891-1.534 5.712-3.452 7.57a.767.767 0 0 0-.213.749c.032.132.15.451.539.565 4.871 1.416 14.279 3.275 22.558-.176.011-.005.039-.016.048-.088a.28.28 0 0 0-.098-.251c-2.948-2.218-8.221-6.847-10.423-12.93a.497.497 0 0 0-.271-.296c-.087-.038-.184-.076-.289-.119-1.621-.654-5.417-2.187-4.948-8.589a3.551 3.551 0 0 1 .602-1.731c1.189-1.751 1.737-3.338 1.365-3.948-.271-.442-1.239-.596-2.662-.422-5.155.629-6.623-3.458-6.95-4.726a1.043 1.043 0 0 0-.465-.615.776.776 0 0 0-.413-.119z" fill="#000"/><path d="M383.244 289.822a3.17 3.17 0 0 1-.464-.035c-1.009-.157-1.971-.825-2.143-1.488a.872.872 0 0 1 1.629-.599c.125.119.56.407 1.054.376.448-.028.856-.33 1.213-.896a.871.871 0 0 1 1.475.93c-.889 1.412-1.988 1.712-2.764 1.712zM370.28 285.202a.785.785 0 0 1-.127-.01c-1.209-.176-2.138-.771-2.686-1.721-1.402-2.428.101-6.372.277-6.814a.877.877 0 0 1 1.133-.487l12.8 5.107a.872.872 0 0 1-.647 1.619l-11.947-4.766c-.382 1.288-.767 3.328-.106 4.471.284.49.737.765 1.427.865a.872.872 0 0 1-.124 1.736z" fill="#000"/><path d="M381.03 291.125a1.081 1.081 0 0 1 1.288-.831c.583.13.951.714.822 1.303a1.08 1.08 0 0 1-1.288.831 1.092 1.092 0 0 1-.822-1.303z" fill="#396DA6"/><path d="M167.44 16.336a.867.867 0 0 1-.477-.142l-2.5-1.638a.872.872 0 1 1 .955-1.46l2.501 1.639a.872.872 0 0 1-.479 1.601zM158.687 10.603a.864.864 0 0 1-.476-.142l-2.501-1.638a.872.872 0 1 1 .956-1.46l2.5 1.639a.872.872 0 0 1-.479 1.601zM163.853 9.565a.872.872 0 0 1-.727-1.353l1.632-2.469a.872.872 0 1 1 1.455.962l-1.632 2.468a.87.87 0 0 1-.728.392zM158.142 18.204a.872.872 0 0 1-.727-1.353l1.632-2.468a.871.871 0 1 1 1.455.962l-1.632 2.468a.872.872 0 0 1-.728.391zM16.181 107.956c-.076 0-.151-.002-.227-.006-2.282-.123-4.04-2.098-3.918-4.401a4.167 4.167 0 0 1 1.383-2.902 4.093 4.093 0 0 1 2.979-1.053c2.282.123 4.04 2.098 3.918 4.401a4.169 4.169 0 0 1-1.383 2.902 4.092 4.092 0 0 1-2.752 1.059zm-.008-6.624c-.586 0-1.146.215-1.588.613a2.436 2.436 0 0 0-.807 1.696c-.071 1.345.947 2.496 2.27 2.568a2.363 2.363 0 0 0 1.72-.609 2.44 2.44 0 0 0 .807-1.697c.071-1.344-.947-2.496-2.27-2.567a1.904 1.904 0 0 0-.131-.004zM164.473 413.629a.873.873 0 0 1-.853-.694l-.609-2.927a.87.87 0 1 1 1.706-.355l.61 2.927a.872.872 0 0 1-.854 1.049zM162.338 403.386a.872.872 0 0 1-.853-.694l-.61-2.927a.873.873 0 0 1 1.707-.356l.609 2.926a.872.872 0 0 1-.853 1.051zM166.724 406.304a.871.871 0 0 1-.173-1.727l2.899-.591a.872.872 0 1 1 .349 1.709l-2.899.591a.815.815 0 0 1-.176.018zM156.577 408.375a.872.872 0 0 1-.173-1.727l2.899-.591a.871.871 0 1 1 .349 1.709l-2.9.591a.866.866 0 0 1-.175.018z" fill="#000"/></svg>