<svg width="206" height="304" viewBox="0 0 206 304" fill="none" xmlns="http://www.w3.org/2000/svg">
<path d="M54.6172 78.3957L184.391 3.20718C193.38 -2.00123 204.634 4.48516 204.634 14.8737V147.113C204.634 156.766 199.511 165.693 191.176 170.56L21.6507 269.582C12.6622 274.832 1.36633 268.349 1.36633 257.939V124.898C1.36633 115.212 6.52643 106.259 14.9074 101.403L54.6172 78.3957Z" fill="white"/>
<path d="M14.851 272.814C17.4251 272.814 19.9983 272.13 22.3401 270.762L171.857 183.427C172.509 183.047 172.728 182.211 172.347 181.558C171.968 180.906 171.131 180.688 170.478 181.067L20.9611 268.402C17.1673 270.618 12.6275 270.635 8.81726 268.447C5.00615 266.26 2.73177 262.332 2.73177 257.938V124.898C2.73177 115.73 7.65953 107.181 15.5924 102.584L185.075 4.38872C188.868 2.19168 193.401 2.18532 197.201 4.37507C200.999 6.56482 203.267 10.4889 203.267 14.8739V66.9825C203.267 67.7367 203.879 68.3489 204.634 68.3489C205.388 68.3489 206 67.7367 206 66.9825V14.8739C206 9.50059 203.22 4.69115 198.565 2.00769C193.91 -0.674844 188.354 -0.669368 183.706 2.02501L14.2234 100.221C5.4498 105.303 1.52588e-05 114.759 1.52588e-05 124.898V257.939C1.52588e-05 263.323 2.78821 268.138 7.45828 270.818C9.77556 272.148 12.3141 272.814 14.851 272.814Z" fill="black"/>
<path d="M29.5515 164.213V129.043C29.5515 127.302 30.4789 125.694 31.9846 124.822L169.125 45.3656C172.377 43.481 176.449 45.8283 176.449 49.5866V84.1089C176.449 85.8433 175.529 87.4464 174.031 88.3217L36.8915 168.426C33.6387 170.325 29.5515 167.98 29.5515 164.213Z" fill="#658DBA"/>
<path d="M55.3842 131.683V131.399C55.3842 129.067 56.6321 126.915 58.6552 125.755L141.087 78.5305C145.423 76.0465 150.824 79.1772 150.824 84.1743C150.824 86.4997 149.583 88.6485 147.568 89.8089L65.1361 137.318C60.7994 139.817 55.3842 136.688 55.3842 131.683Z" fill="white"/>
<path d="M29.5516 221.159V193.557C29.5516 190.653 31.0992 187.967 33.6123 186.511L164.222 110.838C169.651 107.692 176.448 111.609 176.448 117.883V144.867C176.448 147.762 174.912 150.439 172.412 151.899L41.8022 228.19C36.3733 231.362 29.5516 227.446 29.5516 221.159Z" fill="#658DBA"/>
<path d="M156.128 144.756C154.49 144.756 153.163 142.59 153.163 139.919C153.163 137.247 154.49 135.081 156.128 135.081C157.765 135.081 159.092 137.247 159.092 139.919C159.092 142.59 157.765 144.756 156.128 144.756Z" fill="white"/>
<path d="M138.575 152.161C138.575 149.489 137.248 147.323 135.61 147.323C133.972 147.323 132.645 149.489 132.645 152.161C132.645 154.833 133.973 156.999 135.61 156.999C137.248 156.999 138.575 154.833 138.575 152.161Z" fill="#315680"/>
<path d="M117.264 164.29C117.264 161.618 115.937 159.452 114.299 159.452C112.661 159.452 111.334 161.618 111.334 164.29C111.334 166.961 112.661 169.128 114.299 169.128C115.937 169.128 117.264 166.961 117.264 164.29Z" fill="white"/>
<path d="M97.2 176.645C97.2 173.974 95.8729 171.808 94.2351 171.808C92.5974 171.808 91.2701 173.974 91.2701 176.645C91.2701 179.317 92.5983 181.483 94.2351 181.483C95.872 181.483 97.2 179.318 97.2 176.645Z" fill="#315680"/>
<path d="M75.8881 188.208C75.8881 185.536 74.5609 183.37 72.9231 183.37C71.2853 183.37 69.9583 185.536 69.9583 188.208C69.9583 190.879 71.2853 193.045 72.9231 193.045C74.5609 193.045 75.8881 190.879 75.8881 188.208Z" fill="black"/>
<path d="M50.706 206.195C49.0685 206.195 47.7409 204.029 47.7409 201.357C47.7409 198.685 49.0685 196.52 50.706 196.52C52.3434 196.52 53.6708 198.685 53.6708 201.357C53.6708 204.029 52.3434 206.195 50.706 206.195Z" fill="white"/>
<path d="M87.501 287.324V173.598C87.501 163.056 93.117 153.311 102.239 148.026L171.817 108.503C181.6 102.835 193.849 109.894 193.849 121.201V234.055C193.849 244.56 188.272 254.275 179.201 259.574L109.577 299.995C99.7949 305.711 87.501 298.654 87.501 287.324Z" fill="white"/>
<path d="M102.177 303.526C104.981 303.526 107.783 302.781 110.334 301.291L179.954 260.872C189.451 255.325 195.349 245.05 195.349 234.056V121.2C195.349 115.347 192.322 110.109 187.25 107.187C182.178 104.265 176.127 104.272 171.064 107.206L101.497 146.722C91.9341 152.263 86 162.559 86 173.598V287.325C86 293.19 89.037 298.434 94.123 301.354C96.649 302.802 99.414 303.526 102.177 303.526ZM179.176 108.005C181.436 108.005 183.693 108.599 185.752 109.786C189.883 112.167 192.349 116.433 192.349 121.2V234.055C192.349 243.987 187.021 253.27 178.445 258.279L108.825 298.698C104.695 301.11 99.7589 301.128 95.6169 298.75C91.4739 296.372 89.001 292.1 89.001 287.323V173.598C89.001 163.625 94.361 154.324 102.991 149.324L172.558 109.808C174.632 108.606 176.905 108.005 179.176 108.005Z" fill="black"/>
<path d="M167.06 183.212C166.083 183.776 165.288 185.146 165.291 186.269L165.347 205.96C165.376 216.143 160.646 228.287 152.954 237.762C149.016 242.615 144.881 246.163 140.84 248.496C137.903 250.192 135.016 251.242 132.305 251.653C132.103 251.684 131.896 251.762 131.692 251.88C130.974 252.295 130.297 253.193 130.036 254.168C129.694 255.424 130.17 256.325 131.084 256.186C134.178 255.715 137.481 254.521 140.852 252.575C145.487 249.899 150.253 245.803 154.72 240.291C163.514 229.452 168.93 215.56 168.897 203.91L168.841 184.219C168.837 183.097 168.043 182.644 167.06 183.212Z" fill="#315680"/>
<path d="M114.315 233.38C113.338 233.944 112.549 235.318 112.552 236.441C112.56 241.551 113.57 245.723 115.324 248.898C117.085 252.063 119.585 254.249 122.588 255.411C122.92 255.541 123.324 255.464 123.727 255.232C124.235 254.939 124.739 254.399 125.091 253.717C125.714 252.498 125.614 251.262 124.866 250.974C122.235 249.951 120.055 248.049 118.519 245.284C116.989 242.523 116.109 238.901 116.097 234.396C116.092 233.272 115.298 232.812 114.315 233.38Z" fill="#315680"/>
<path d="M140.606 184.214C138.582 185.383 136.502 187.186 134.578 189.583C130.869 194.208 128.596 200.091 128.61 205.028L128.612 205.879C128.615 207.009 129.409 207.462 130.393 206.894C131.37 206.33 132.159 204.963 132.155 203.834L132.153 202.983C132.143 199.498 133.749 195.345 136.362 192.087C137.758 190.348 139.199 189.111 140.617 188.286C142.826 187.01 144.974 186.799 146.556 187.627C148.138 188.455 149.153 190.279 149.162 193.162L149.197 205.553C149.207 209.067 147.575 213.257 144.918 216.533C143.548 218.221 142.132 219.435 140.74 220.239C138.524 221.518 136.376 221.73 134.794 220.901C133.219 220.062 132.203 218.245 132.188 215.373C132.185 214.243 131.391 213.79 130.414 214.354C129.431 214.922 128.642 216.288 128.645 217.418C128.65 221.428 130.116 224.101 132.351 225.258C134.586 226.422 137.584 226.138 140.751 224.31C142.762 223.149 144.79 221.39 146.684 219.062C150.444 214.422 152.762 208.484 152.747 203.502L152.712 191.111C152.701 187.098 151.235 184.424 149 183.268C146.765 182.098 143.767 182.389 140.606 184.214Z" fill="#315680"/>
<path d="M140.865 169.729C139.869 170.304 139.08 171.651 139.071 172.771C139.055 173.912 139.843 174.383 140.82 173.834C145.111 171.437 149.241 171.088 152.29 172.731C155.333 174.377 157.293 177.963 157.315 183.527L157.378 205.756C157.39 209.93 156.22 214.589 154.141 219.037C153.556 220.286 153.726 221.467 154.519 221.677C154.836 221.763 155.205 221.68 155.571 221.469C156.114 221.156 156.649 220.561 156.994 219.822C159.518 214.426 160.934 208.773 160.92 203.711L160.857 181.482C160.844 174.795 158.44 170.363 154.751 168.378C151.063 166.391 146.095 166.805 140.865 169.729Z" fill="#315680"/>
<path d="M131.327 178.133C131.025 178.307 130.72 178.573 130.442 178.92C124.223 186.67 120.407 196.545 120.431 204.82L120.494 227.049C120.513 233.799 122.956 238.252 126.709 240.208C130.456 242.168 135.507 241.676 140.799 238.628C143.564 237.032 146.39 234.731 149.106 231.73C149.999 230.744 150.385 229.316 149.973 228.525C149.676 227.948 149.032 227.876 148.358 228.265C148.111 228.408 147.86 228.612 147.621 228.876C145.371 231.358 143.061 233.236 140.788 234.548C136.446 237.055 132.252 237.47 129.152 235.85C126.059 234.219 124.059 230.611 124.044 224.999L123.981 202.77C123.961 195.947 127.104 187.806 132.228 181.416C133.075 180.361 133.359 178.948 132.865 178.263C132.533 177.801 131.937 177.78 131.327 178.133Z" fill="#315680"/>
<path d="M140.5 155.955C135.782 158.679 130.934 162.874 126.409 168.522C117.742 179.331 112.429 193.076 112.461 204.616L112.511 222.069C112.514 223.191 113.308 223.651 114.285 223.087C115.268 222.519 116.057 221.145 116.054 220.023L116.004 202.57C115.975 192.482 120.622 180.467 128.2 171.014C132.189 166.043 136.4 162.407 140.511 160.034C146.826 156.381 152.925 155.733 157.478 157.991C162.031 160.264 165.039 165.383 165.247 173.361C165.275 174.451 166.069 174.871 167.025 174.319C168.049 173.698 168.819 172.32 168.79 171.205C168.566 162.127 165.096 156.194 159.896 153.619C154.69 151.04 147.753 151.768 140.5 155.955Z" fill="#315680"/>
<path d="M141.549 196.515C140.572 197.079 139.777 198.451 139.78 199.58L139.81 210.173C139.813 211.303 140.614 211.753 141.591 211.189C142.574 210.621 143.363 209.254 143.36 208.124L143.33 197.53C143.326 196.4 142.532 195.947 141.549 196.515Z" fill="#315680"/>
</svg>
